<?xml version="1.0" encoding="UTF-8"?> <!-- Generator: Adobe Illustrator 22.0.1, SVG Export Plug-In . SVG Version: 6.00 Build 0) --> <svg xmlns="http://www.w3.org/2000/svg" xmlns:xlink="http://www.w3.org/1999/xlink" x="0px" y="0px" viewBox="0 0 716 188" xml:space="preserve"> <g id="LogoMark"> </g> <g id="Kitware"> <g> <path fill="#172C36" d="M221.5,110.3l-6.2,29.3h-15.5l16.4-77.1h20.4c10.2,0,17.5,1.9,22,5.8c4.5,3.9,5.9,9.8,4.2,17.8 c-1.6,7.6-5.4,13.5-11.4,17.8c-6,4.3-13.4,6.4-22.2,6.4H221.5z M224.1,98.2h6.3c4.3,0,7.9-1,10.8-3.1s4.8-5.1,5.6-8.9 c0.7-3.5,0-6.2-2.1-8.3c-2.2-2.1-5.3-3.1-9.3-3.1h-6.3L224.1,98.2z"></path> <path fill="#172C36" d="M297.1,130.3c-3.2,4.1-6.6,6.9-10.1,8.4c-3.5,1.5-6.8,2.2-9.9,2.2c-6,0-10.4-1.6-13.3-4.9 c-2.9-3.3-3.9-7.3-2.9-12c1.4-6.4,4.7-11.3,10.1-14.6c5.4-3.3,12.6-5,21.8-5h9.1l0.3-1.2c0.9-4,0.3-6.9-1.5-8.6 c-1.9-1.7-4.9-2.5-8.9-2.5c-3.1,0-6.3,0.6-9.7,1.8c-3.4,1.2-6.4,2.7-9,4.6l2.3-12.9c2.1-1,5.4-2,9.8-2.9c4.4-0.9,8.1-1.4,11.2-1.4 c8.6,0,14.4,2,17.4,5.9c3,3.9,3.5,10.2,1.7,18.9l-3.2,15.2c-1.1,5-1.8,9.3-2.3,12.9c-0.5,3.6-0.7,5.4-0.6,5.4h-13.3 c-0.1,0-0.1-0.9,0.1-2.7C296.1,135.1,296.5,132.9,297.1,130.3z M299.7,114.3l0.2-1h-6.7c-5.5,0.1-9.7,1-12.6,2.5 c-2.9,1.5-4.7,3.9-5.3,7c-0.5,2.3-0.1,4.1,1.2,5.4c1.3,1.3,3.5,1.9,6.5,1.9c4.3,0,8-1.5,10.9-4.6 C296.9,122.3,298.8,118.6,299.7,114.3z"></path> <path fill="#172C36" d="M337.6,139.6h-14.7L335,82.7h13.1l-2.8,13.1c2.5-5.1,5.5-8.8,9-11c3.5-2.3,6.9-3.4,10.2-3.4l4.1,0.4 l-3.2,14.9c-0.5-0.3-1.3-0.6-2.3-0.8c-1-0.3-2.3-0.4-4-0.4c-4.2,0-7.7,1.8-10.4,5.4c-2.7,3.6-4.8,8.5-6.1,14.9L337.6,139.6z"></path> <path fill="#172C36" d="M401.5,130.3c-3.2,4.1-6.6,6.9-10.1,8.4c-3.5,1.5-6.8,2.2-9.9,2.2c-6,0-10.4-1.6-13.3-4.9 c-2.9-3.3-3.9-7.3-2.9-12c1.4-6.4,4.7-11.3,10.1-14.6c5.4-3.3,12.6-5,21.8-5h9.1l0.3-1.2c0.9-4,0.3-6.9-1.5-8.6 c-1.9-1.7-4.9-2.5-8.9-2.5c-3.1,0-6.3,0.6-9.7,1.8c-3.4,1.2-6.4,2.7-9,4.6l2.3-12.9c2.1-1,5.4-2,9.8-2.9c4.4-0.9,8.1-1.4,11.2-1.4 c8.6,0,14.4,2,17.4,5.9c3,3.9,3.5,10.2,1.7,18.9l-3.2,15.2c-1.1,5-1.8,9.3-2.3,12.9c-0.5,3.6-0.7,5.4-0.6,5.4h-13.3 c-0.1,0-0.1-0.9,0.1-2.7C400.5,135.1,400.9,132.9,401.5,130.3z M404.1,114.3l0.2-1h-6.7c-5.5,0.1-9.7,1-12.6,2.5s-4.7,3.9-5.3,7 c-0.5,2.3-0.1,4.1,1.2,5.4c1.3,1.3,3.5,1.9,6.5,1.9c4.3,0,8-1.5,10.9-4.6C401.2,122.3,403.2,118.6,404.1,114.3z"></path> <path fill="#172C36" d="M492.9,62.5h15.4L466,139.6h-19l-10.1-77.1h16.6l6.9,61.1L492.9,62.5z"></path> <path fill="#172C36" d="M515.8,139.6H501l12.1-56.9h14.8L515.8,139.6z M515.3,72.3l3-14.1h14.8l-3,14.1H515.3z"></path> <path fill="#172C36" d="M577.7,136.4c-2.8,1.4-5.8,2.5-9.1,3.3c-3.3,0.8-6.8,1.2-10.5,1.2c-9.9,0-16.9-2.6-21.1-7.7 c-4.2-5.2-5.2-12.6-3.2-22.2c1.9-8.9,5.8-16.1,11.7-21.5c5.9-5.4,12.9-8.1,20.9-8.1c9.6,0,15.8,2.9,18.8,8.7 c3,5.8,3.2,14.4,0.9,25.6h-39.4c-0.1,4.1,0.5,7.1,1.9,9.3c2.2,3.4,6,5.1,11.5,5.1c4,0,8-0.8,12-2.3c4-1.5,6.7-2.7,8.2-3.6 L577.7,136.4z M548.8,105.6h25.5c0.7-4.3,0.2-7.6-1.4-9.9c-1.6-2.3-4.3-3.5-8-3.5c-4.3,0-8,1.7-11.1,5 C551.8,99.2,550.2,102,548.8,105.6z"></path> <path fill="#172C36" d="M655.6,82.7l3.6,42.4L680,82.7h14.1l-29.4,56.9h-17.6l-3-44l-21.6,44h-16.9l-7.1-56.9h15.7l3.7,42.5 l20.6-42.5H655.6z"></path> </g> <polygon fill="#BE2128" points="61.6,154.4 24.2,154.4 54.9,38 92.4,38 "></polygon> <polygon fill="#249847" points="108.1,154.4 70.7,154.4 101.5,38 138.9,38 "></polygon> <polygon fill="#064F8C" points="154.7,154.4 117.3,154.4 148,38 185.5,38 "></polygon> </g> </svg> 